<svg version="1" xmlns="http://www.w3.org/2000/svg" width="682.667" height="682.667" viewBox="0 0 512.000000 512.000000"><path d="M347 1.1c-18.3 2.8-32.8 7.2-47 14.4-25.9 13.1-46.9 34.6-58.6 60.1-3.4 7.2-8.9 23.1-9.8 28-2.9 15.6-3.6 22-3.7 35.4-.2 17.4 2.7 34.6 8.7 51 7.9 22.1 22.6 42.6 40.9 57.1 6 4.8 21.6 14.9 22.9 14.9.3 0 3.3 1.3 6.8 2.9 6.9 3.2 23.9 8.5 30.3 9.5 12.3 1.8 16.2 2.1 28 2.1 12.1 0 24.6-.9 27.7-2 .7-.2 2.4-.6 3.8-.9 4-.6 14.8-3.6 17.8-4.8 1.5-.6 3.6-1.4 4.7-1.8 15.6-5.6 35.2-18.4 48.3-31.7l5.2-5.3v-98h-62.5c-34.4 0-62.5.3-62.6.7-.4 4-.3 32.7.2 33.5.4.7 15.2 1 42.8 1l42.1-.1v24c0 27.4 1 24.1-10 31.8-9 6.3-25.5 13.9-33.7 15.6-34.6 7.2-63.8 0-87.9-21.6-15.9-14.3-25.5-32.5-30.9-58.4-1.1-5.2-1.4-29.8-.5-35.5.5-3 1.2-6.9 1.4-8.5 1.1-6.5 5.6-19.5 9.4-27 7.5-15.1 18.2-27.2 31.7-36 10.2-6.6 14.9-8.8 26-12 23.1-6.6 47.1-4.6 68 5.7 10.4 5.2 25.5 17.3 30 24.2l1.7 2.5 4.1-2.2c2.3-1.2 9.7-5.5 16.5-9.5l12.3-7.3-3.7-4.7c-3.7-4.6-17-18.2-21-21.3C431.5 15.2 413.8 7 395 3 383.5.6 357.3-.5 347 1.1zM0 138.5V272h40V169.2l41.3-.1c22.6 0 42.3-.3 43.7-.5 1.3-.3 4.2-.8 6.5-1.1 2.2-.3 6.9-1.5 10.5-2.7 29.3-9.4 48.6-31.8 54-62.6 1.3-7.4 1.2-25.5-.2-31.5-.5-2.3-1.2-5.2-1.4-6.5-1-5.2-5.8-16.1-9.9-22.7C173.5 24 156 12 134.9 7.4c-9.2-2-21.2-2.4-74.6-2.4H0v133.5zm122.6-96.2c9.7 2.8 18.1 8.5 25.2 17.2 2.6 3.1 6.3 12.4 7.3 18.2 4.1 24.8-7.5 45.3-30.3 53.5-6.1 2.2-7.7 2.3-45.5 2.6l-39.3.3V40.3l38.8.2c31 .2 39.7.5 43.8 1.8z"/></svg>